<svg id="Capa_1" enable-background="new 0 0 512 512" height="512" viewBox="0 0 512 512" width="512" xmlns="http://www.w3.org/2000/svg"><g><g><g><g><path d="m47.5 105h-40c-4.143 0-7.5-3.357-7.5-7.5v-90c0-4.143 3.357-7.5 7.5-7.5h90c4.143 0 7.5 3.357 7.5 7.5v40c0 4.143-3.357 7.5-7.5 7.5h-42.5v42.5c0 4.143-3.357 7.5-7.5 7.5zm-32.5-15h25v-42.5c0-4.143 3.357-7.5 7.5-7.5h42.5v-25h-75z"/></g><g><path d="m504.5 105h-40c-4.143 0-7.5-3.357-7.5-7.5v-42.5h-42.5c-4.143 0-7.5-3.357-7.5-7.5v-40c0-4.143 3.357-7.5 7.5-7.5h90c4.143 0 7.5 3.357 7.5 7.5v90c0 4.143-3.357 7.5-7.5 7.5zm-32.5-15h25v-75h-75v25h42.5c4.143 0 7.5 3.357 7.5 7.5z"/></g></g><g><g><path d="m97.5 512h-90c-4.143 0-7.5-3.357-7.5-7.5v-90c0-4.143 3.357-7.5 7.5-7.5h40c4.143 0 7.5 3.357 7.5 7.5v42.5h42.5c4.143 0 7.5 3.357 7.5 7.5v40c0 4.143-3.357 7.5-7.5 7.5zm-82.5-15h75v-25h-42.5c-4.143 0-7.5-3.357-7.5-7.5v-42.5h-25z"/></g><g><path d="m504.5 512h-90c-4.143 0-7.5-3.357-7.5-7.5v-40c0-4.143 3.357-7.5 7.5-7.5h42.5v-42.5c0-4.143 3.357-7.5 7.5-7.5h40c4.143 0 7.5 3.357 7.5 7.5v90c0 4.143-3.357 7.5-7.5 7.5zm-82.5-15h75v-75h-25v42.5c0 4.143-3.357 7.5-7.5 7.5h-42.5z"/></g></g></g><g><g><g><path d="m256 385.957c-15.806 0-31.004-6.667-41.699-18.291-2.805-3.048-2.606-7.793.441-10.598 3.049-2.804 7.793-2.607 10.598.441 7.862 8.546 19.038 13.447 30.66 13.447s22.798-4.901 30.66-13.447c2.804-3.049 7.549-3.247 10.598-.441 3.048 2.805 3.246 7.55.441 10.598-10.695 11.624-25.893 18.291-41.699 18.291z"/></g><g><g><path d="m198.333 303.98c-4.143 0-7.5-3.357-7.5-7.5v-13.093c0-4.143 3.357-7.5 7.5-7.5s7.5 3.357 7.5 7.5v13.093c0 4.143-3.357 7.5-7.5 7.5z"/></g><g><path d="m313.667 303.98c-4.143 0-7.5-3.357-7.5-7.5v-13.093c0-4.143 3.357-7.5 7.5-7.5s7.5 3.357 7.5 7.5v13.093c0 4.143-3.357 7.5-7.5 7.5z"/></g></g></g><g><path d="m396 258.995h-12.5v-39.605c0-7.851-1.231-15.492-3.641-22.819 25.458-9.492 43.641-34.045 43.641-62.771 0-17.886-6.967-34.703-19.616-47.354-12.65-12.649-29.468-19.616-47.354-19.616h-18.27c-4.143 0-7.5 3.357-7.5 7.5s3.357 7.5 7.5 7.5h18.271c13.88 0 26.93 5.406 36.746 15.224 9.817 9.816 15.224 22.866 15.224 36.746 0 28.656-23.313 51.97-51.97 51.97h-120.371c-4.143 0-7.5 3.357-7.5 7.5s3.357 7.5 7.5 7.5h120.37c2.955 0 5.859-.213 8.713-.585 2.154 6.144 3.256 12.579 3.256 19.206v113.28c0 53.091-43.18 96.825-96.254 97.491-4.143.052-7.458 3.451-7.405 7.593.051 4.11 3.398 7.406 7.497 7.406.032 0 .064 0 .096-.001 29.748-.373 57.657-12.24 78.585-33.414 20.326-20.567 31.788-47.619 32.449-76.433h12.533c15.163 0 27.5-12.337 27.5-27.5v-21.317c0-15.164-12.337-27.501-27.5-27.501zm12.5 48.818c0 6.893-5.607 12.5-12.5 12.5h-12.5v-46.317h12.5c6.893 0 12.5 5.607 12.5 12.5z"/><path d="m239.754 430.161c-53.074-.666-96.254-44.4-96.254-97.491v-64.118c26.3-11.521 41.296-39.561 39-67.782h20.98c4.143 0 7.5-3.357 7.5-7.5s-3.357-7.5-7.5-7.5h-28.48c-4.143 0-7.5 3.357-7.5 7.5 1.615 25.85-6.293 53.846-33.868 63.038-9.899 3.383-30.132 5.972-30.132-11.197v-53.7c0-21.164 13.398-40.141 33.34-47.223 2.045-.727 3.676-2.303 4.47-4.322 13.864-35.255 47.304-58.035 85.19-58.035h79.08c4.143 0 7.5-3.357 7.5-7.5s-3.357-7.5-7.5-7.5h-79.08c-41.864 0-81.346 25.977-97.878 64.454-24.135 10.032-40.122 33.775-40.122 60.125v53.7c0 8.263 3.493 15.721 9.072 20.992-5.568 5.036-9.072 12.313-9.072 20.393v21.317c0 15.163 12.337 27.5 27.5 27.5h12.532c.661 28.813 12.125 55.866 32.45 76.433 20.927 21.174 48.836 33.041 78.584 33.414.032.001.063.001.096.001 4.098 0 7.446-3.296 7.497-7.406.053-4.142-3.263-7.541-7.405-7.593zm-136.254-122.348v-21.317c0-6.893 5.607-12.5 12.5-12.5h12.5v46.317h-12.5c-6.893 0-12.5-5.608-12.5-12.5z"/></g></g></g></svg>